<?xml version="1.0" standalone="no"?>
<!DOCTYPE svg PUBLIC "-//W3C//DTD SVG 20010904//EN"
 "http://www.w3.org/TR/2001/REC-SVG-20010904/DTD/svg10.dtd">
<svg version="1.0" xmlns="http://www.w3.org/2000/svg"
 width="512.000000pt" height="512.000000pt" viewBox="0 0 512.000000 512.000000"
 preserveAspectRatio="xMidYMid meet">
<metadata>
Created by potrace 1.11, written by Peter Selinger 2001-2013
</metadata>
<g transform="translate(0.000000,512.000000) scale(0.100000,-0.100000)"
fill="#000000" stroke="none">
<path d="M2260 5106 c-837 -107 -1563 -600 -1955 -1328 -43 -81 -45 -88 -26
-88 15 0 21 -6 21 -21 0 -18 -5 -21 -29 -17 -23 3 -32 -1 -40 -19 -10 -23 -10
-23 54 -23 l65 0 0 40 c0 29 4 40 15 40 12 0 15 -16 15 -80 0 -79 0 -80 25
-80 25 0 25 1 25 80 0 64 3 80 15 80 12 0 15 -16 15 -80 0 -79 0 -80 25 -80
25 0 25 1 25 80 0 64 3 80 15 80 12 0 15 -18 15 -100 l0 -100 -95 0 -95 0 0
40 0 40 -65 0 c-58 0 -65 -2 -65 -20 0 -17 7 -20 40 -20 33 0 40 -3 40 -20 0
-18 -7 -20 -55 -20 -45 0 -55 3 -55 17 0 23 -6 15 -29 -44 l-21 -53 25 0 c18
0 25 5 25 20 0 19 7 20 175 20 168 0 175 -1 175 -20 0 -15 7 -20 25 -20 18 0
25 5 25 20 0 19 7 20 175 20 168 0 175 -1 175 -20 0 -15 7 -20 25 -20 18 0 25
5 25 20 0 19 7 20 175 20 168 0 175 -1 175 -20 0 -13 7 -20 20 -20 13 0 20 7
20 20 0 19 7 20 180 20 173 0 180 -1 180 -20 0 -13 7 -20 20 -20 13 0 20 7 20
20 0 19 7 20 180 20 173 0 180 -1 180 -20 0 -13 7 -20 20 -20 13 0 20 7 20 20
0 19 7 20 180 20 173 0 180 -1 180 -20 0 -13 7 -20 20 -20 13 0 20 7 20 20 0
19 7 20 180 20 173 0 180 -1 180 -20 0 -13 7 -20 20 -20 13 0 20 7 20 20 0 19
7 20 180 20 173 0 180 -1 180 -20 0 -13 7 -20 20 -20 13 0 20 7 20 20 0 19 7
20 175 20 168 0 175 -1 175 -20 0 -15 7 -20 25 -20 18 0 25 5 25 20 0 19 7 20
175 20 168 0 175 -1 175 -20 0 -15 7 -20 25 -20 18 0 25 5 25 20 0 19 7 20
175 20 168 0 175 -1 175 -20 0 -15 7 -20 25 -20 18 0 25 5 25 20 0 19 7 20
175 20 168 0 175 -1 175 -20 0 -15 7 -20 25 -20 l25 0 -21 53 c-23 59 -29 67
-29 44 0 -15 -13 -17 -95 -17 l-95 0 0 40 0 40 -65 0 -65 0 0 -40 c0 -29 -4
-40 -15 -40 -12 0 -15 13 -15 60 l0 60 95 0 95 0 0 -40 0 -40 65 0 c58 0 65 2
65 20 0 17 -7 20 -40 20 -34 0 -40 3 -40 21 0 19 5 21 40 17 22 -2 40 -2 40
-1 0 1 -5 12 -10 25 -11 23 -13 23 -160 20 -146 -3 -150 -2 -150 17 0 20 6 21
141 21 l141 0 -47 88 c-241 445 -626 823 -1080 1058 -253 131 -497 210 -805
260 -132 22 -531 27 -670 10z m-1160 -1436 c0 -19 -7 -20 -255 -20 -248 0
-255 1 -255 20 0 19 7 20 255 20 248 0 255 -1 255 -20z m80 -60 c0 -79 0 -80
25 -80 25 0 25 1 25 80 0 64 3 80 15 80 12 0 15 -16 15 -80 0 -79 0 -80 25
-80 25 0 25 1 25 80 0 64 3 80 15 80 12 0 15 -18 15 -100 l0 -100 -95 0 -95 0
0 40 0 40 -65 0 c-58 0 -65 -2 -65 -20 0 -17 7 -20 40 -20 33 0 40 -3 40 -20
0 -18 -7 -20 -55 -20 l-55 0 0 60 0 60 80 0 80 0 0 40 c0 29 4 40 15 40 12 0
15 -16 15 -80z m720 60 c0 -19 -7 -20 -260 -20 -210 0 -260 3 -260 13 0 8 3
17 7 20 3 4 120 7 260 7 246 0 253 -1 253 -20z m80 -60 c0 -73 2 -80 20 -80
18 0 20 7 20 80 0 73 2 80 20 80 18 0 20 -7 20 -80 0 -73 2 -80 20 -80 18 0
20 7 20 80 0 73 2 80 20 80 19 0 20 -7 20 -100 l0 -100 -100 0 -100 0 0 40 0
40 -60 0 c-53 0 -60 -2 -60 -20 0 -17 7 -20 40 -20 33 0 40 -3 40 -20 0 -18
-7 -20 -60 -20 l-60 0 0 60 0 60 80 0 80 0 0 40 c0 33 3 40 20 40 18 0 20 -7
20 -80z m720 60 c0 -19 -7 -20 -260 -20 -253 0 -260 1 -260 20 0 19 7 20 260
20 253 0 260 -1 260 -20z m80 -60 c0 -73 2 -80 20 -80 18 0 20 7 20 80 0 73 2
80 20 80 18 0 20 -7 20 -80 0 -73 2 -80 20 -80 18 0 20 7 20 80 0 73 2 80 20
80 19 0 20 -7 20 -100 l0 -100 -100 0 -100 0 0 40 0 40 -60 0 c-53 0 -60 -2
-60 -20 0 -17 7 -20 40 -20 33 0 40 -3 40 -20 0 -18 -7 -20 -60 -20 l-60 0 0
60 0 60 80 0 80 0 0 40 c0 33 3 40 20 40 18 0 20 -7 20 -80z m720 60 c0 -19
-7 -20 -260 -20 -253 0 -260 1 -260 20 0 19 7 20 260 20 253 0 260 -1 260 -20z
m74 4 c3 -9 6 -45 6 -80 0 -57 2 -64 20 -64 18 0 20 7 20 81 0 71 2 80 18 77
14 -3 17 -15 18 -68 1 -88 1 -90 24 -90 18 0 20 7 20 80 0 64 3 80 15 80 12 0
15 -18 15 -100 l0 -100 -95 0 -95 0 0 40 0 40 -60 0 c-53 0 -60 -2 -60 -20 0
-17 7 -20 40 -20 33 0 40 -3 40 -20 0 -18 -7 -20 -60 -20 l-60 0 0 60 0 60 80
0 80 0 0 40 c0 41 21 57 34 24z m716 -4 c0 -19 -7 -20 -255 -20 -248 0 -255 1
-255 20 0 19 7 20 255 20 248 0 255 -1 255 -20z m80 -60 c0 -79 0 -80 25 -80
25 0 25 1 25 80 0 64 3 80 15 80 12 0 15 -16 15 -80 0 -79 0 -80 25 -80 25 0
25 1 25 80 0 64 3 80 15 80 12 0 15 -18 15 -100 l0 -100 -95 0 -95 0 0 40 0
40 -65 0 c-58 0 -65 -2 -65 -20 0 -17 7 -20 40 -20 33 0 40 -3 40 -20 0 -18
-7 -20 -55 -20 l-55 0 0 60 0 60 80 0 80 0 0 40 c0 29 4 40 15 40 12 0 15 -16
15 -80z m-3590 -40 l0 -40 65 0 c58 0 65 2 65 20 0 17 -7 20 -40 20 -33 0 -40
3 -40 20 0 18 7 20 55 20 l55 0 0 -60 0 -60 -95 0 -95 0 0 40 0 40 -65 0 -65
0 0 -40 c0 -29 -4 -40 -15 -40 -12 0 -15 13 -15 60 l0 60 95 0 95 0 0 -40z
m800 0 l0 -40 60 0 c53 0 60 2 60 20 0 17 -7 20 -40 20 -33 0 -40 3 -40 20 0
18 7 20 60 20 l60 0 0 -60 0 -60 -100 0 -100 0 0 40 0 40 -60 0 -60 0 0 -40
c0 -58 -27 -54 -36 5 -10 73 -8 75 101 75 l95 0 0 -40z m800 0 l0 -40 60 0
c53 0 60 2 60 20 0 17 -7 20 -40 20 -33 0 -40 3 -40 20 0 18 7 20 60 20 l60 0
0 -60 0 -60 -100 0 -100 0 0 40 0 40 -60 0 -60 0 0 -40 c0 -33 -3 -40 -20 -40
-18 0 -20 7 -20 60 l0 60 100 0 100 0 0 -40z m800 0 l0 -40 60 0 c53 0 60 2
60 20 0 17 -7 20 -40 20 -33 0 -40 3 -40 20 0 18 7 20 60 20 l60 0 0 -60 0
-60 -100 0 -100 0 0 40 0 40 -60 0 -60 0 0 -40 c0 -33 -3 -40 -20 -40 -18 0
-20 7 -20 60 l0 60 100 0 100 0 0 -40z m790 0 l0 -40 65 0 c58 0 65 2 65 20 0
17 -7 20 -40 20 -33 0 -40 3 -40 20 0 18 7 20 55 20 l55 0 0 -60 0 -60 -95 0
-95 0 0 40 0 40 -65 0 -65 0 0 -40 c0 -29 -4 -40 -15 -40 -12 0 -15 13 -15 60
l0 60 95 0 95 0 0 -40z m-3270 -60 c0 -11 -7 -20 -15 -20 -8 0 -15 9 -15 20 0
11 7 20 15 20 8 0 15 -9 15 -20z m800 0 c0 -13 -7 -20 -20 -20 -13 0 -20 7
-20 20 0 13 7 20 20 20 13 0 20 -7 20 -20z m800 0 c0 -13 -7 -20 -20 -20 -13
0 -20 7 -20 20 0 13 7 20 20 20 13 0 20 -7 20 -20z m800 0 c0 -13 -7 -20 -20
-20 -13 0 -20 7 -20 20 0 13 7 20 20 20 13 0 20 -7 20 -20z m790 0 c0 -11 -7
-20 -15 -20 -8 0 -15 9 -15 20 0 11 7 20 15 20 8 0 15 -9 15 -20z m800 0 c0
-11 -7 -20 -15 -20 -8 0 -15 9 -15 20 0 11 7 20 15 20 8 0 15 -9 15 -20z"/>
<path d="M2390 3139 c0 -49 42 -89 94 -89 23 0 47 7 58 17 17 15 19 15 36 0
11 -10 35 -17 59 -17 34 0 46 6 67 31 15 18 26 43 26 61 l0 30 -29 -31 c-35
-38 -89 -43 -121 -11 l-20 20 -20 -20 c-32 -32 -86 -27 -121 11 l-29 31 0 -33z"/>
<path d="M2518 3026 l-38 -33 0 -184 c0 -101 5 -289 11 -418 5 -128 8 -235 6
-237 -2 -2 -25 14 -50 36 -69 61 -139 172 -173 276 -25 77 -29 103 -28 199 0
93 4 122 28 190 15 44 36 94 47 111 54 88 -25 18 -87 -77 -114 -174 -124 -381
-28 -576 41 -82 125 -179 196 -227 l49 -33 -44 -12 c-24 -6 -78 -14 -118 -18
l-74 -7 45 -14 c26 -8 88 -14 145 -14 l101 -1 22 -33 c12 -19 27 -34 32 -34 5
0 20 15 32 34 l22 34 91 -1 c49 0 117 6 150 13 l60 14 -70 7 c-38 4 -94 13
-122 20 l-53 12 48 33 c115 77 214 225 248 369 35 149 0 323 -89 447 -42 59
-97 119 -97 106 0 -3 16 -39 35 -80 117 -245 65 -529 -131 -725 -30 -31 -57
-53 -60 -50 -3 3 0 110 5 238 13 279 14 609 3 609 -5 0 -22 13 -38 30 -16 16
-31 29 -34 29 -3 0 -22 -15 -42 -33z"/>
<path d="M2195 2996 c-88 -43 -148 -94 -197 -170 -60 -93 -81 -176 -76 -299 3
-93 7 -109 39 -177 42 -86 91 -147 155 -191 24 -16 44 -28 44 -26 0 3 -16 31
-35 63 -61 101 -80 179 -80 329 1 107 5 141 23 192 33 92 88 181 158 251 34
34 57 62 50 62 -6 0 -43 -15 -81 -34z"/>
<path d="M2886 2979 c58 -56 117 -143 151 -224 34 -79 46 -165 40 -273 -6
-113 -31 -202 -82 -286 -19 -32 -35 -60 -35 -63 0 -2 19 9 43 26 206 143 261
448 119 667 -21 33 -59 77 -83 98 -42 37 -170 106 -196 106 -6 0 13 -23 43
-51z"/>
<path d="M150 1695 c0 -3 7 -21 14 -40 15 -34 16 -35 75 -35 54 0 61 -2 61
-20 0 -17 -7 -20 -50 -20 -27 0 -50 -4 -50 -9 0 -31 12 -36 80 -33 l70 4 0 39
c0 28 4 39 15 39 12 0 15 -16 15 -80 0 -79 0 -80 25 -80 25 0 25 1 25 80 0 64
3 80 15 80 12 0 15 -16 15 -80 0 -79 0 -80 25 -80 25 0 25 1 25 80 0 64 3 80
15 80 12 0 15 -18 15 -100 l0 -100 -95 0 -95 0 0 40 0 40 -59 0 c-54 0 -59 -2
-54 -20 4 -14 14 -20 34 -20 22 0 29 -5 29 -20 0 -11 -7 -20 -15 -20 -8 0 -15
-2 -15 -5 0 -12 108 -197 161 -276 416 -619 1056 -1015 1809 -1121 125 -17
515 -17 640 0 329 46 666 158 931 307 409 232 756 580 988 991 28 51 51 94 51
98 0 3 -25 6 -55 6 l-55 0 0 40 0 40 -65 0 -65 0 0 -40 c0 -29 -4 -40 -15 -40
-12 0 -15 13 -15 60 l0 60 95 0 95 0 0 -40 0 -40 50 0 c39 0 52 4 60 20 10 18
8 20 -25 20 -29 0 -35 4 -35 21 0 19 5 21 45 17 43 -3 55 4 55 33 0 5 -73 9
-170 9 -163 0 -170 1 -170 20 0 19 7 20 181 20 l180 0 15 35 c18 44 18 45 -6
45 -13 0 -20 -7 -20 -20 0 -19 -7 -20 -175 -20 -168 0 -175 1 -175 20 0 15 -7
20 -25 20 -18 0 -25 -5 -25 -20 0 -19 -7 -20 -175 -20 -168 0 -175 1 -175 20
0 15 -7 20 -25 20 -18 0 -25 -5 -25 -20 0 -19 -7 -20 -175 -20 -168 0 -175 1
-175 20 0 15 -7 20 -25 20 -18 0 -25 -5 -25 -20 0 -19 -7 -20 -175 -20 -168 0
-175 1 -175 20 0 27 -40 27 -47 0 -5 -19 -14 -20 -179 -20 -167 0 -174 1 -174
20 0 13 -7 20 -20 20 -13 0 -20 -7 -20 -20 0 -19 -7 -20 -180 -20 -173 0 -180
1 -180 20 0 13 -7 20 -20 20 -13 0 -20 -7 -20 -20 0 -19 -7 -20 -180 -20 -173
0 -180 1 -180 20 0 13 -7 20 -20 20 -13 0 -20 -7 -20 -20 0 -19 -7 -20 -181
-20 -176 0 -180 1 -174 20 5 16 2 20 -19 20 -19 0 -26 -5 -26 -20 0 -19 -7
-20 -175 -20 -168 0 -175 1 -175 20 0 15 -7 20 -25 20 -18 0 -25 -5 -25 -20 0
-19 -7 -20 -175 -20 -168 0 -175 1 -175 20 0 15 -7 20 -25 20 -18 0 -25 -5
-25 -20 0 -19 -7 -20 -175 -20 -168 0 -175 1 -175 20 0 15 -7 20 -25 20 -18 0
-25 -5 -25 -20 0 -19 -7 -20 -175 -20 -168 0 -175 1 -175 20 0 13 -7 20 -20
20 -11 0 -20 -2 -20 -5z m950 -95 c0 -19 -7 -20 -255 -20 -248 0 -255 1 -255
20 0 19 7 20 255 20 248 0 255 -1 255 -20z m80 -60 c0 -79 0 -80 25 -80 25 0
25 1 25 80 0 64 3 80 15 80 12 0 15 -16 15 -80 0 -79 0 -80 25 -80 25 0 25 1
25 80 0 64 3 80 15 80 12 0 15 -18 15 -100 l0 -100 -95 0 -95 0 0 40 0 40 -65
0 c-58 0 -65 -2 -65 -20 0 -17 7 -20 40 -20 33 0 40 -3 40 -20 0 -18 -7 -20
-55 -20 l-55 0 0 60 0 60 80 0 80 0 0 40 c0 29 4 40 15 40 12 0 15 -16 15 -80z
m720 60 c0 -19 -7 -20 -255 -20 -248 0 -255 1 -255 20 0 19 7 20 255 20 248 0
255 -1 255 -20z m80 -60 c0 -73 2 -80 20 -80 18 0 20 7 20 80 0 73 2 80 20 80
18 0 20 -7 20 -80 0 -73 2 -80 20 -80 18 0 20 7 20 80 0 73 2 80 20 80 19 0
20 -7 20 -100 l0 -100 -100 0 -100 0 0 40 0 40 -60 0 c-53 0 -60 -2 -60 -20 0
-17 7 -20 40 -20 34 0 40 -3 40 -20 0 -19 -5 -21 -57 -18 l-58 3 0 57 0 58 78
0 77 0 0 40 c0 33 3 40 20 40 18 0 20 -7 20 -80z m720 60 c0 -19 -7 -20 -260
-20 -253 0 -260 1 -260 20 0 19 7 20 260 20 253 0 260 -1 260 -20z m80 -60 c0
-73 2 -80 20 -80 18 0 20 7 20 80 0 73 2 80 20 80 18 0 20 -7 20 -80 0 -73 2
-80 20 -80 18 0 20 7 20 80 0 73 2 80 20 80 19 0 20 -7 20 -100 l0 -100 -100
0 -100 0 0 40 0 40 -60 0 c-53 0 -60 -2 -60 -20 0 -17 7 -20 40 -20 33 0 40
-3 40 -20 0 -18 -7 -20 -60 -20 l-60 0 0 60 0 60 80 0 80 0 0 40 c0 33 3 40
20 40 18 0 20 -7 20 -80z m710 60 c0 -19 -7 -20 -255 -20 -248 0 -255 1 -255
20 0 19 7 20 255 20 248 0 255 -1 255 -20z m80 -60 c0 -79 0 -80 25 -80 25 0
25 1 25 80 0 64 3 80 15 80 12 0 15 -16 15 -80 0 -79 0 -80 25 -80 25 0 25 1
25 80 0 64 3 80 15 80 12 0 15 -18 15 -100 l0 -100 -95 0 -95 0 0 40 0 40 -65
0 c-58 0 -65 -2 -65 -20 0 -17 7 -20 40 -20 33 0 40 -3 40 -20 0 -18 -7 -20
-55 -20 l-55 0 0 60 0 60 80 0 80 0 0 40 c0 29 4 40 15 40 12 0 15 -16 15 -80z
m720 60 c0 -19 -7 -20 -255 -20 -248 0 -255 1 -255 20 0 19 7 20 255 20 248 0
255 -1 255 -20z m80 -60 c0 -79 0 -80 25 -80 25 0 25 1 25 80 0 64 3 80 15 80
12 0 15 -16 15 -80 0 -79 0 -80 25 -80 25 0 25 1 25 80 0 64 3 80 15 80 12 0
15 -18 15 -100 l0 -100 -95 0 -95 0 0 40 0 40 -65 0 c-58 0 -65 -2 -65 -20 0
-17 7 -20 40 -20 33 0 40 -3 40 -20 0 -18 -7 -20 -55 -20 l-55 0 0 60 0 60 80
0 80 0 0 40 c0 29 4 40 15 40 12 0 15 -16 15 -80z m-3590 -40 l0 -40 65 0 c58
0 65 2 65 20 0 17 -7 20 -40 20 -33 0 -40 3 -40 20 0 18 7 20 55 20 l55 0 0
-60 0 -60 -95 0 -95 0 0 40 0 40 -65 0 -65 0 0 -40 c0 -29 -4 -40 -15 -40 -12
0 -15 13 -15 60 l0 60 95 0 95 0 0 -40z m800 0 l0 -40 60 0 c53 0 60 2 60 20
0 16 -7 20 -35 20 -28 0 -35 4 -35 20 0 18 7 20 55 20 l55 0 0 -60 0 -60 -95
0 -95 0 0 40 0 40 -65 0 -65 0 0 -40 c0 -29 -4 -40 -15 -40 -12 0 -15 13 -15
60 l0 60 95 0 95 0 0 -40z m800 0 l0 -40 60 0 c53 0 60 2 60 20 0 17 -7 20
-40 20 -33 0 -40 3 -40 20 0 18 7 20 60 20 l60 0 0 -60 0 -60 -100 0 -100 0 0
40 0 40 -60 0 -60 0 0 -40 c0 -33 -3 -40 -20 -40 -18 0 -20 7 -20 60 l0 60
100 0 100 0 0 -40z m800 0 l0 -40 60 0 c53 0 60 2 60 20 0 17 -7 20 -40 20
-33 0 -40 3 -40 20 0 18 7 20 61 20 l62 0 -7 -37 c-3 -21 -6 -48 -6 -60 0 -22
-3 -23 -95 -23 l-95 0 0 40 0 40 -60 0 -60 0 0 -40 c0 -33 -3 -40 -20 -40 -18
0 -20 7 -20 60 l0 60 100 0 100 0 0 -40z m790 0 l0 -40 65 0 c58 0 65 2 65 20
0 17 -7 20 -40 20 -33 0 -40 3 -40 20 0 18 7 20 55 20 l55 0 0 -60 0 -60 -95
0 -95 0 0 40 0 40 -65 0 -65 0 0 -40 c0 -29 -4 -40 -15 -40 -12 0 -15 13 -15
60 l0 60 95 0 95 0 0 -40z m-3270 -60 c0 -11 -7 -20 -15 -20 -8 0 -15 9 -15
20 0 11 7 20 15 20 8 0 15 -9 15 -20z m800 0 c0 -11 -7 -20 -15 -20 -8 0 -15
9 -15 20 0 11 7 20 15 20 8 0 15 -9 15 -20z m800 0 c0 -13 -7 -20 -20 -20 -13
0 -20 7 -20 20 0 13 7 20 20 20 13 0 20 -7 20 -20z m798 3 c-5 -26 -38 -29
-38 -4 0 15 6 21 21 21 14 0 19 -5 17 -17z m792 -3 c0 -11 -7 -20 -15 -20 -8
0 -15 9 -15 20 0 11 7 20 15 20 8 0 15 -9 15 -20z m800 0 c0 -11 -7 -20 -15
-20 -8 0 -15 9 -15 20 0 11 7 20 15 20 8 0 15 -9 15 -20z"/>
</g>
</svg>
